<mxfile host="Electron" modified="2024-08-03T11:16:50.616Z" agent="Mozilla/5.0 (Windows NT 10.0; Win64; x64) AppleWebKit/537.36 (KHTML, like Gecko) draw.io/24.5.3 Chrome/124.0.6367.207 Electron/30.0.6 Safari/537.36" etag="4jJp-28QTWNmlaW97wXz" version="24.5.3" type="device">
  <diagram name="HCUCC-HCUBC" id="T5z2ARAD1wq3U_Uc1T8T">
    <mxGraphModel dx="3070" dy="1496" grid="1" gridSize="10" guides="1" tooltips="1" connect="1" arrows="1" fold="1" page="1" pageScale="1" pageWidth="850" pageHeight="1100" math="0" shadow="0">
      <root>
        <mxCell id="0" />
        <mxCell id="1" parent="0" />
        <mxCell id="5J5AWuTOcwmvuOkOpKkV-28" value="" style="rounded=0;whiteSpace=wrap;html=1;" parent="1" vertex="1">
          <mxGeometry x="-140" y="90" width="200" height="660" as="geometry" />
        </mxCell>
        <mxCell id="5J5AWuTOcwmvuOkOpKkV-1" value="" style="rounded=0;whiteSpace=wrap;html=1;" parent="1" vertex="1">
          <mxGeometry x="330" y="90" width="200" height="660" as="geometry" />
        </mxCell>
        <mxCell id="5J5AWuTOcwmvuOkOpKkV-6" style="edgeStyle=orthogonalEdgeStyle;rounded=0;orthogonalLoop=1;jettySize=auto;html=1;exitX=1;exitY=0.5;exitDx=0;exitDy=0;entryX=0;entryY=0.75;entryDx=0;entryDy=0;fillColor=#f8cecc;strokeColor=#b85450;strokeWidth=3;" parent="1" source="5J5AWuTOcwmvuOkOpKkV-2" target="5J5AWuTOcwmvuOkOpKkV-3" edge="1">
          <mxGeometry relative="1" as="geometry">
            <mxPoint x="630" y="140" as="targetPoint" />
            <Array as="points">
              <mxPoint x="660" y="130" />
            </Array>
          </mxGeometry>
        </mxCell>
        <mxCell id="5J5AWuTOcwmvuOkOpKkV-2" value="&lt;b&gt;VIN 4.5-17V&lt;/b&gt; (1,3,5)" style="rounded=0;whiteSpace=wrap;html=1;fillColor=#f8cecc;strokeColor=#b85450;" parent="1" vertex="1">
          <mxGeometry x="350" y="120" width="160" height="20" as="geometry" />
        </mxCell>
        <mxCell id="5J5AWuTOcwmvuOkOpKkV-7" style="edgeStyle=orthogonalEdgeStyle;rounded=0;orthogonalLoop=1;jettySize=auto;html=1;exitX=1;exitY=0.5;exitDx=0;exitDy=0;fillColor=#f8cecc;strokeColor=#b85450;strokeWidth=3;" parent="1" source="5J5AWuTOcwmvuOkOpKkV-3" edge="1">
          <mxGeometry relative="1" as="geometry">
            <mxPoint x="840" y="117" as="targetPoint" />
          </mxGeometry>
        </mxCell>
        <mxCell id="5J5AWuTOcwmvuOkOpKkV-9" style="edgeStyle=orthogonalEdgeStyle;rounded=1;orthogonalLoop=1;jettySize=auto;html=1;exitX=1;exitY=0.75;exitDx=0;exitDy=0;entryX=1;entryY=0.5;entryDx=0;entryDy=0;fillColor=#f8cecc;strokeColor=#b85450;strokeWidth=3;" parent="1" source="5J5AWuTOcwmvuOkOpKkV-3" target="5J5AWuTOcwmvuOkOpKkV-10" edge="1">
          <mxGeometry relative="1" as="geometry">
            <mxPoint x="660" y="180" as="targetPoint" />
            <Array as="points">
              <mxPoint x="770" y="128" />
              <mxPoint x="770" y="155" />
            </Array>
          </mxGeometry>
        </mxCell>
        <mxCell id="5J5AWuTOcwmvuOkOpKkV-3" value="VOLTAGE&lt;br&gt;OR + DC-DC" style="rounded=0;whiteSpace=wrap;html=1;fillColor=#f8cecc;strokeColor=#b85450;" parent="1" vertex="1">
          <mxGeometry x="660" y="92" width="90" height="50" as="geometry" />
        </mxCell>
        <mxCell id="5J5AWuTOcwmvuOkOpKkV-5" style="edgeStyle=orthogonalEdgeStyle;rounded=1;orthogonalLoop=1;jettySize=auto;html=1;exitX=1;exitY=0.75;exitDx=0;exitDy=0;entryX=0;entryY=0.25;entryDx=0;entryDy=0;fillColor=#f8cecc;strokeColor=#b85450;strokeWidth=3;" parent="1" source="5J5AWuTOcwmvuOkOpKkV-4" target="5J5AWuTOcwmvuOkOpKkV-3" edge="1">
          <mxGeometry relative="1" as="geometry" />
        </mxCell>
        <mxCell id="5J5AWuTOcwmvuOkOpKkV-4" value="USB (&lt;b&gt;J2&lt;/b&gt;)" style="rounded=0;whiteSpace=wrap;html=1;" parent="1" vertex="1">
          <mxGeometry x="350" y="10" width="160" height="50" as="geometry" />
        </mxCell>
        <mxCell id="5J5AWuTOcwmvuOkOpKkV-8" value="3.3V" style="text;html=1;align=center;verticalAlign=middle;resizable=0;points=[];autosize=1;strokeColor=none;fillColor=none;" parent="1" vertex="1">
          <mxGeometry x="780" y="92" width="50" height="30" as="geometry" />
        </mxCell>
        <mxCell id="5J5AWuTOcwmvuOkOpKkV-36" style="edgeStyle=orthogonalEdgeStyle;rounded=0;orthogonalLoop=1;jettySize=auto;html=1;exitX=0;exitY=0.5;exitDx=0;exitDy=0;entryX=1;entryY=0.5;entryDx=0;entryDy=0;fillColor=#f8cecc;strokeColor=#b85450;strokeWidth=3;" parent="1" source="5J5AWuTOcwmvuOkOpKkV-10" target="5J5AWuTOcwmvuOkOpKkV-31" edge="1">
          <mxGeometry relative="1" as="geometry" />
        </mxCell>
        <mxCell id="5J5AWuTOcwmvuOkOpKkV-40" value="Not Used" style="edgeLabel;html=1;align=center;verticalAlign=middle;resizable=0;points=[];" parent="5J5AWuTOcwmvuOkOpKkV-36" vertex="1" connectable="0">
          <mxGeometry x="-0.0183" y="2" relative="1" as="geometry">
            <mxPoint y="-2" as="offset" />
          </mxGeometry>
        </mxCell>
        <mxCell id="5J5AWuTOcwmvuOkOpKkV-10" value="&lt;b&gt;VOUT 3.3V&lt;/b&gt; (300mA max)&lt;br&gt;(35,37,39)" style="rounded=0;whiteSpace=wrap;html=1;fillColor=#f8cecc;strokeColor=#b85450;" parent="1" vertex="1">
          <mxGeometry x="350" y="140" width="160" height="30" as="geometry" />
        </mxCell>
        <mxCell id="5J5AWuTOcwmvuOkOpKkV-11" value="3.3V" style="text;html=1;align=center;verticalAlign=middle;resizable=0;points=[];autosize=1;strokeColor=none;fillColor=none;" parent="1" vertex="1">
          <mxGeometry x="760" y="120" width="50" height="30" as="geometry" />
        </mxCell>
        <mxCell id="5J5AWuTOcwmvuOkOpKkV-13" style="edgeStyle=orthogonalEdgeStyle;rounded=0;orthogonalLoop=1;jettySize=auto;html=1;exitX=1;exitY=0.5;exitDx=0;exitDy=0;strokeWidth=3;" parent="1" source="5J5AWuTOcwmvuOkOpKkV-12" edge="1">
          <mxGeometry relative="1" as="geometry">
            <mxPoint x="670" y="210" as="targetPoint" />
          </mxGeometry>
        </mxCell>
        <mxCell id="5J5AWuTOcwmvuOkOpKkV-42" style="edgeStyle=orthogonalEdgeStyle;rounded=0;orthogonalLoop=1;jettySize=auto;html=1;exitX=0;exitY=0.5;exitDx=0;exitDy=0;entryX=1;entryY=0.5;entryDx=0;entryDy=0;endArrow=none;endFill=0;strokeWidth=3;" parent="1" source="5J5AWuTOcwmvuOkOpKkV-12" target="5J5AWuTOcwmvuOkOpKkV-41" edge="1">
          <mxGeometry relative="1" as="geometry" />
        </mxCell>
        <mxCell id="5J5AWuTOcwmvuOkOpKkV-43" value="GND" style="edgeLabel;html=1;align=center;verticalAlign=middle;resizable=0;points=[];" parent="5J5AWuTOcwmvuOkOpKkV-42" vertex="1" connectable="0">
          <mxGeometry x="0.2737" y="-4" relative="1" as="geometry">
            <mxPoint x="48" y="4" as="offset" />
          </mxGeometry>
        </mxCell>
        <mxCell id="5J5AWuTOcwmvuOkOpKkV-12" value="&lt;b&gt;GND&lt;/b&gt;&lt;br&gt;(2,4,6,10,16,18,20,26,28,&lt;br&gt;30,32,34,36,38,40)" style="rounded=0;whiteSpace=wrap;html=1;fillColor=#e1d5e7;strokeColor=#9673a6;" parent="1" vertex="1">
          <mxGeometry x="350" y="180" width="160" height="60" as="geometry" />
        </mxCell>
        <mxCell id="5J5AWuTOcwmvuOkOpKkV-14" value="GND of board" style="text;html=1;align=center;verticalAlign=middle;resizable=0;points=[];autosize=1;strokeColor=none;fillColor=none;" parent="1" vertex="1">
          <mxGeometry x="540" y="180" width="100" height="30" as="geometry" />
        </mxCell>
        <mxCell id="5J5AWuTOcwmvuOkOpKkV-25" style="edgeStyle=orthogonalEdgeStyle;rounded=0;orthogonalLoop=1;jettySize=auto;html=1;exitX=1;exitY=0.5;exitDx=0;exitDy=0;entryX=0;entryY=0.5;entryDx=0;entryDy=0;startArrow=classic;startFill=1;strokeWidth=3;" parent="1" source="5J5AWuTOcwmvuOkOpKkV-15" target="5J5AWuTOcwmvuOkOpKkV-23" edge="1">
          <mxGeometry relative="1" as="geometry" />
        </mxCell>
        <mxCell id="5J5AWuTOcwmvuOkOpKkV-15" value="&lt;b&gt;JTAG&lt;/b&gt;&lt;br&gt;TDI (shared): 25&lt;br&gt;TDO (shared):27&lt;br&gt;TMS: 29&lt;br&gt;TCK: 33" style="rounded=0;whiteSpace=wrap;html=1;fillColor=#fff2cc;strokeColor=#d6b656;" parent="1" vertex="1">
          <mxGeometry x="350" y="260" width="160" height="80" as="geometry" />
        </mxCell>
        <mxCell id="5J5AWuTOcwmvuOkOpKkV-51" style="edgeStyle=orthogonalEdgeStyle;rounded=0;orthogonalLoop=1;jettySize=auto;html=1;exitX=0;exitY=0.5;exitDx=0;exitDy=0;entryX=1;entryY=0.5;entryDx=0;entryDy=0;startArrow=classic;startFill=1;strokeWidth=3;" parent="1" source="5J5AWuTOcwmvuOkOpKkV-16" target="5J5AWuTOcwmvuOkOpKkV-47" edge="1">
          <mxGeometry relative="1" as="geometry" />
        </mxCell>
        <mxCell id="W7AmAQE3_NizHvJbt0U--8" value="Not Used" style="edgeLabel;html=1;align=center;verticalAlign=middle;resizable=0;points=[];" vertex="1" connectable="0" parent="5J5AWuTOcwmvuOkOpKkV-51">
          <mxGeometry x="-0.0296" y="-4" relative="1" as="geometry">
            <mxPoint y="4" as="offset" />
          </mxGeometry>
        </mxCell>
        <mxCell id="5J5AWuTOcwmvuOkOpKkV-16" value="&lt;b&gt;SPI&lt;/b&gt;&lt;br&gt;MISO: 13&lt;br&gt;MOSI: 15&lt;br&gt;SCK: 17&lt;br&gt;CS1: 19&lt;br&gt;CS2: 21" style="rounded=0;whiteSpace=wrap;html=1;fillColor=#dae8fc;strokeColor=#6c8ebf;" parent="1" vertex="1">
          <mxGeometry x="350" y="360" width="160" height="90" as="geometry" />
        </mxCell>
        <mxCell id="5J5AWuTOcwmvuOkOpKkV-78" style="edgeStyle=orthogonalEdgeStyle;rounded=0;orthogonalLoop=1;jettySize=auto;html=1;exitX=1;exitY=0.5;exitDx=0;exitDy=0;entryX=0;entryY=0.5;entryDx=0;entryDy=0;startArrow=classic;startFill=1;strokeWidth=3;" parent="1" source="5J5AWuTOcwmvuOkOpKkV-17" target="5J5AWuTOcwmvuOkOpKkV-77" edge="1">
          <mxGeometry relative="1" as="geometry" />
        </mxCell>
        <mxCell id="5J5AWuTOcwmvuOkOpKkV-17" value="&lt;b&gt;I2C&lt;/b&gt;&lt;br&gt;SDA: 7&lt;br&gt;SCL: 9" style="rounded=0;whiteSpace=wrap;html=1;fillColor=#dae8fc;strokeColor=#6c8ebf;" parent="1" vertex="1">
          <mxGeometry x="350" y="510" width="160" height="50" as="geometry" />
        </mxCell>
        <mxCell id="5J5AWuTOcwmvuOkOpKkV-72" style="edgeStyle=orthogonalEdgeStyle;rounded=0;orthogonalLoop=1;jettySize=auto;html=1;exitX=0;exitY=0.5;exitDx=0;exitDy=0;entryX=1;entryY=0.5;entryDx=0;entryDy=0;startArrow=classic;startFill=1;strokeWidth=3;" parent="1" source="5J5AWuTOcwmvuOkOpKkV-18" target="5J5AWuTOcwmvuOkOpKkV-71" edge="1">
          <mxGeometry relative="1" as="geometry" />
        </mxCell>
        <mxCell id="W7AmAQE3_NizHvJbt0U--14" value="Not Used" style="edgeLabel;html=1;align=center;verticalAlign=middle;resizable=0;points=[];" vertex="1" connectable="0" parent="5J5AWuTOcwmvuOkOpKkV-72">
          <mxGeometry x="-0.0128" y="-2" relative="1" as="geometry">
            <mxPoint as="offset" />
          </mxGeometry>
        </mxCell>
        <mxCell id="5J5AWuTOcwmvuOkOpKkV-18" value="&lt;b&gt;UART&lt;/b&gt;&lt;br&gt;TX (out): 14&lt;br&gt;RX (in): 12" style="rounded=0;whiteSpace=wrap;html=1;fillColor=#dae8fc;strokeColor=#6c8ebf;" parent="1" vertex="1">
          <mxGeometry x="350" y="580" width="160" height="50" as="geometry" />
        </mxCell>
        <mxCell id="5J5AWuTOcwmvuOkOpKkV-19" value="&lt;b&gt;BTL BACKDOOR&lt;/b&gt; 11" style="rounded=0;whiteSpace=wrap;html=1;fillColor=#fff2cc;strokeColor=#d6b656;" parent="1" vertex="1">
          <mxGeometry x="350" y="650" width="160" height="20" as="geometry" />
        </mxCell>
        <mxCell id="5J5AWuTOcwmvuOkOpKkV-20" value="&lt;b&gt;RESET&lt;/b&gt; 31" style="rounded=0;whiteSpace=wrap;html=1;fillColor=#fff2cc;strokeColor=#d6b656;" parent="1" vertex="1">
          <mxGeometry x="350" y="670" width="160" height="20" as="geometry" />
        </mxCell>
        <mxCell id="5J5AWuTOcwmvuOkOpKkV-21" value="&lt;b&gt;ADC IN: &lt;/b&gt;22" style="rounded=0;whiteSpace=wrap;html=1;fillColor=#dae8fc;strokeColor=#6c8ebf;" parent="1" vertex="1">
          <mxGeometry x="350" y="690" width="160" height="20" as="geometry" />
        </mxCell>
        <mxCell id="5J5AWuTOcwmvuOkOpKkV-63" style="edgeStyle=orthogonalEdgeStyle;rounded=0;orthogonalLoop=1;jettySize=auto;html=1;exitX=0;exitY=0.5;exitDx=0;exitDy=0;entryX=1;entryY=0.5;entryDx=0;entryDy=0;" parent="1" source="5J5AWuTOcwmvuOkOpKkV-22" target="5J5AWuTOcwmvuOkOpKkV-59" edge="1">
          <mxGeometry relative="1" as="geometry" />
        </mxCell>
        <mxCell id="W7AmAQE3_NizHvJbt0U--7" value="GPIO" style="edgeLabel;html=1;align=center;verticalAlign=middle;resizable=0;points=[];" vertex="1" connectable="0" parent="5J5AWuTOcwmvuOkOpKkV-63">
          <mxGeometry x="-0.0577" y="1" relative="1" as="geometry">
            <mxPoint x="-14" y="-1" as="offset" />
          </mxGeometry>
        </mxCell>
        <mxCell id="5J5AWuTOcwmvuOkOpKkV-22" value="&lt;b&gt;XSHUT_OUT: &lt;/b&gt;24" style="rounded=0;whiteSpace=wrap;html=1;fillColor=#dae8fc;strokeColor=#6c8ebf;" parent="1" vertex="1">
          <mxGeometry x="350" y="710" width="160" height="20" as="geometry" />
        </mxCell>
        <mxCell id="5J5AWuTOcwmvuOkOpKkV-23" value="&lt;b&gt;JTAG CON (J3)&lt;/b&gt;&lt;br&gt;TDI (shared): 3&lt;br&gt;TDO (shared):7&lt;br&gt;TMS: 1&lt;br&gt;TCK: 11&lt;br&gt;VTG: 5" style="rounded=0;whiteSpace=wrap;html=1;fillColor=#fff2cc;strokeColor=#d6b656;" parent="1" vertex="1">
          <mxGeometry x="680" y="250" width="160" height="100" as="geometry" />
        </mxCell>
        <mxCell id="5J5AWuTOcwmvuOkOpKkV-24" value="J1" style="text;html=1;align=center;verticalAlign=middle;resizable=0;points=[];autosize=1;strokeColor=none;fillColor=none;fontStyle=1;fontSize=16;" parent="1" vertex="1">
          <mxGeometry x="330" y="90" width="40" height="30" as="geometry" />
        </mxCell>
        <mxCell id="5J5AWuTOcwmvuOkOpKkV-29" value="J1" style="text;html=1;align=center;verticalAlign=middle;resizable=0;points=[];autosize=1;strokeColor=none;fillColor=none;fontStyle=1;fontSize=16;" parent="1" vertex="1">
          <mxGeometry x="-140" y="90" width="40" height="30" as="geometry" />
        </mxCell>
        <mxCell id="5J5AWuTOcwmvuOkOpKkV-34" style="edgeStyle=orthogonalEdgeStyle;rounded=0;orthogonalLoop=1;jettySize=auto;html=1;exitX=1;exitY=0.5;exitDx=0;exitDy=0;entryX=0;entryY=0.5;entryDx=0;entryDy=0;fillColor=#f8cecc;strokeColor=#b85450;strokeWidth=3;" parent="1" source="5J5AWuTOcwmvuOkOpKkV-30" target="5J5AWuTOcwmvuOkOpKkV-2" edge="1">
          <mxGeometry relative="1" as="geometry" />
        </mxCell>
        <mxCell id="5J5AWuTOcwmvuOkOpKkV-39" value="VSYS" style="edgeLabel;html=1;align=center;verticalAlign=middle;resizable=0;points=[];" parent="5J5AWuTOcwmvuOkOpKkV-34" vertex="1" connectable="0">
          <mxGeometry x="0.1134" y="4" relative="1" as="geometry">
            <mxPoint x="-13" y="4" as="offset" />
          </mxGeometry>
        </mxCell>
        <mxCell id="5J5AWuTOcwmvuOkOpKkV-30" value="&lt;b&gt;VSYS/VBAT 3.7V&lt;/b&gt; (1,3,5)" style="rounded=0;whiteSpace=wrap;html=1;fillColor=#f8cecc;strokeColor=#b85450;" parent="1" vertex="1">
          <mxGeometry x="-120" y="120" width="160" height="20" as="geometry" />
        </mxCell>
        <mxCell id="5J5AWuTOcwmvuOkOpKkV-31" value="&lt;b&gt;VCC TOP 3.3V&lt;/b&gt;&lt;br&gt;(35,37,39)" style="rounded=0;whiteSpace=wrap;html=1;fillColor=#f8cecc;strokeColor=#b85450;" parent="1" vertex="1">
          <mxGeometry x="-120" y="140" width="160" height="30" as="geometry" />
        </mxCell>
        <mxCell id="5J5AWuTOcwmvuOkOpKkV-41" value="&lt;b&gt;GND&lt;/b&gt;&lt;br&gt;(2,4,6,10,16,18,20,26,28,&lt;br&gt;30,32,34,36,38,40)" style="rounded=0;whiteSpace=wrap;html=1;fillColor=#e1d5e7;strokeColor=#9673a6;" parent="1" vertex="1">
          <mxGeometry x="-120" y="180" width="160" height="60" as="geometry" />
        </mxCell>
        <mxCell id="5J5AWuTOcwmvuOkOpKkV-45" style="edgeStyle=orthogonalEdgeStyle;rounded=0;orthogonalLoop=1;jettySize=auto;html=1;exitX=1;exitY=0.5;exitDx=0;exitDy=0;entryX=0;entryY=0.5;entryDx=0;entryDy=0;startArrow=classic;startFill=1;strokeWidth=3;" parent="1" source="5J5AWuTOcwmvuOkOpKkV-44" target="5J5AWuTOcwmvuOkOpKkV-15" edge="1">
          <mxGeometry relative="1" as="geometry" />
        </mxCell>
        <mxCell id="5J5AWuTOcwmvuOkOpKkV-70" value="Not Used" style="edgeLabel;html=1;align=center;verticalAlign=middle;resizable=0;points=[];" parent="5J5AWuTOcwmvuOkOpKkV-45" vertex="1" connectable="0">
          <mxGeometry x="-0.0156" relative="1" as="geometry">
            <mxPoint as="offset" />
          </mxGeometry>
        </mxCell>
        <mxCell id="5J5AWuTOcwmvuOkOpKkV-44" value="&lt;b&gt;JTAG&lt;/b&gt;&lt;br&gt;TDI: 25&lt;br&gt;TDO:27&lt;br&gt;TMS: 29&lt;br&gt;TCK: 33" style="rounded=0;whiteSpace=wrap;html=1;fillColor=#fff2cc;strokeColor=#d6b656;" parent="1" vertex="1">
          <mxGeometry x="-120" y="260" width="160" height="80" as="geometry" />
        </mxCell>
        <mxCell id="5J5AWuTOcwmvuOkOpKkV-47" value="&lt;b&gt;SPI&lt;/b&gt;&lt;br&gt;MISO: 13&lt;br&gt;MOSI: 15&lt;br&gt;SCK: 17&lt;br&gt;CS_MOT_1_2: 19&lt;br&gt;CS_MOT_3_4: 21" style="rounded=0;whiteSpace=wrap;html=1;fillColor=#dae8fc;strokeColor=#6c8ebf;" parent="1" vertex="1">
          <mxGeometry x="-120" y="360" width="160" height="90" as="geometry" />
        </mxCell>
        <mxCell id="5J5AWuTOcwmvuOkOpKkV-49" value="CS3: 23" style="rounded=0;whiteSpace=wrap;html=1;fillColor=#dae8fc;strokeColor=#6c8ebf;" parent="1" vertex="1">
          <mxGeometry x="350" y="450" width="160" height="20" as="geometry" />
        </mxCell>
        <mxCell id="5J5AWuTOcwmvuOkOpKkV-50" value="CS4: 8" style="rounded=0;whiteSpace=wrap;html=1;fillColor=#dae8fc;strokeColor=#6c8ebf;" parent="1" vertex="1">
          <mxGeometry x="350" y="470" width="160" height="20" as="geometry" />
        </mxCell>
        <mxCell id="5J5AWuTOcwmvuOkOpKkV-54" style="edgeStyle=orthogonalEdgeStyle;rounded=0;orthogonalLoop=1;jettySize=auto;html=1;exitX=1;exitY=0.5;exitDx=0;exitDy=0;entryX=0;entryY=0.5;entryDx=0;entryDy=0;" parent="1" source="5J5AWuTOcwmvuOkOpKkV-52" target="5J5AWuTOcwmvuOkOpKkV-49" edge="1">
          <mxGeometry relative="1" as="geometry" />
        </mxCell>
        <mxCell id="5J5AWuTOcwmvuOkOpKkV-67" value="GPIO" style="edgeLabel;html=1;align=center;verticalAlign=middle;resizable=0;points=[];" parent="5J5AWuTOcwmvuOkOpKkV-54" vertex="1" connectable="0">
          <mxGeometry x="-0.0767" y="-3" relative="1" as="geometry">
            <mxPoint y="-3" as="offset" />
          </mxGeometry>
        </mxCell>
        <mxCell id="5J5AWuTOcwmvuOkOpKkV-52" value="CHRG_STAT2: 23" style="rounded=0;whiteSpace=wrap;html=1;fillColor=#dae8fc;strokeColor=#6c8ebf;" parent="1" vertex="1">
          <mxGeometry x="-120" y="450" width="160" height="20" as="geometry" />
        </mxCell>
        <mxCell id="5J5AWuTOcwmvuOkOpKkV-55" style="edgeStyle=orthogonalEdgeStyle;rounded=0;orthogonalLoop=1;jettySize=auto;html=1;exitX=1;exitY=0.5;exitDx=0;exitDy=0;entryX=0;entryY=0.5;entryDx=0;entryDy=0;" parent="1" source="5J5AWuTOcwmvuOkOpKkV-53" target="5J5AWuTOcwmvuOkOpKkV-50" edge="1">
          <mxGeometry relative="1" as="geometry" />
        </mxCell>
        <mxCell id="5J5AWuTOcwmvuOkOpKkV-69" value="GPIO" style="edgeLabel;html=1;align=center;verticalAlign=middle;resizable=0;points=[];" parent="5J5AWuTOcwmvuOkOpKkV-55" vertex="1" connectable="0">
          <mxGeometry x="-0.1243" y="1" relative="1" as="geometry">
            <mxPoint x="14" y="1" as="offset" />
          </mxGeometry>
        </mxCell>
        <mxCell id="5J5AWuTOcwmvuOkOpKkV-53" value="CHRG_STAT1: 8" style="rounded=0;whiteSpace=wrap;html=1;fillColor=#dae8fc;strokeColor=#6c8ebf;" parent="1" vertex="1">
          <mxGeometry x="-120" y="470" width="160" height="20" as="geometry" />
        </mxCell>
        <mxCell id="5J5AWuTOcwmvuOkOpKkV-57" style="edgeStyle=orthogonalEdgeStyle;rounded=0;orthogonalLoop=1;jettySize=auto;html=1;exitX=1;exitY=0.5;exitDx=0;exitDy=0;entryX=0;entryY=0.5;entryDx=0;entryDy=0;startArrow=classic;startFill=1;strokeWidth=3;" parent="1" source="5J5AWuTOcwmvuOkOpKkV-56" target="5J5AWuTOcwmvuOkOpKkV-17" edge="1">
          <mxGeometry relative="1" as="geometry" />
        </mxCell>
        <mxCell id="W7AmAQE3_NizHvJbt0U--13" value="Not Used" style="edgeLabel;html=1;align=center;verticalAlign=middle;resizable=0;points=[];" vertex="1" connectable="0" parent="5J5AWuTOcwmvuOkOpKkV-57">
          <mxGeometry x="-0.004" relative="1" as="geometry">
            <mxPoint as="offset" />
          </mxGeometry>
        </mxCell>
        <mxCell id="5J5AWuTOcwmvuOkOpKkV-56" value="&lt;b&gt;I2C&lt;/b&gt;&lt;br&gt;SDA: 7&lt;br&gt;SCL: 9" style="rounded=0;whiteSpace=wrap;html=1;fillColor=#dae8fc;strokeColor=#6c8ebf;" parent="1" vertex="1">
          <mxGeometry x="-120" y="510" width="160" height="50" as="geometry" />
        </mxCell>
        <mxCell id="5J5AWuTOcwmvuOkOpKkV-62" style="edgeStyle=orthogonalEdgeStyle;rounded=0;orthogonalLoop=1;jettySize=auto;html=1;exitX=1;exitY=0.5;exitDx=0;exitDy=0;entryX=0;entryY=0.5;entryDx=0;entryDy=0;" parent="1" source="5J5AWuTOcwmvuOkOpKkV-58" target="5J5AWuTOcwmvuOkOpKkV-21" edge="1">
          <mxGeometry relative="1" as="geometry" />
        </mxCell>
        <mxCell id="W7AmAQE3_NizHvJbt0U--6" value="ANALOG" style="edgeLabel;html=1;align=center;verticalAlign=middle;resizable=0;points=[];" vertex="1" connectable="0" parent="5J5AWuTOcwmvuOkOpKkV-62">
          <mxGeometry x="-0.0321" y="-3" relative="1" as="geometry">
            <mxPoint y="-3" as="offset" />
          </mxGeometry>
        </mxCell>
        <mxCell id="5J5AWuTOcwmvuOkOpKkV-58" value="&lt;b&gt;BAT_V: &lt;/b&gt;22" style="rounded=0;whiteSpace=wrap;html=1;fillColor=#dae8fc;strokeColor=#6c8ebf;" parent="1" vertex="1">
          <mxGeometry x="-120" y="690" width="160" height="20" as="geometry" />
        </mxCell>
        <mxCell id="5J5AWuTOcwmvuOkOpKkV-59" value="&lt;b&gt;XSHUT: &lt;/b&gt;24" style="rounded=0;whiteSpace=wrap;html=1;fillColor=#dae8fc;strokeColor=#6c8ebf;" parent="1" vertex="1">
          <mxGeometry x="-120" y="710" width="160" height="20" as="geometry" />
        </mxCell>
        <mxCell id="5J5AWuTOcwmvuOkOpKkV-71" value="&lt;b&gt;UART&lt;/b&gt;&lt;br&gt;CC_TX (in): 14&lt;br&gt;CC_RX (out): 12" style="rounded=0;whiteSpace=wrap;html=1;fillColor=#dae8fc;strokeColor=#6c8ebf;" parent="1" vertex="1">
          <mxGeometry x="-120" y="580" width="160" height="50" as="geometry" />
        </mxCell>
        <mxCell id="5J5AWuTOcwmvuOkOpKkV-74" style="edgeStyle=orthogonalEdgeStyle;rounded=0;orthogonalLoop=1;jettySize=auto;html=1;exitX=1;exitY=0.5;exitDx=0;exitDy=0;entryX=0;entryY=0.5;entryDx=0;entryDy=0;" parent="1" source="5J5AWuTOcwmvuOkOpKkV-73" target="5J5AWuTOcwmvuOkOpKkV-19" edge="1">
          <mxGeometry relative="1" as="geometry" />
        </mxCell>
        <mxCell id="W7AmAQE3_NizHvJbt0U--10" value="Not Used" style="edgeLabel;html=1;align=center;verticalAlign=middle;resizable=0;points=[];" vertex="1" connectable="0" parent="5J5AWuTOcwmvuOkOpKkV-74">
          <mxGeometry x="-0.0657" y="-1" relative="1" as="geometry">
            <mxPoint as="offset" />
          </mxGeometry>
        </mxCell>
        <mxCell id="5J5AWuTOcwmvuOkOpKkV-73" value="&lt;b&gt;BTL BACKDOOR&lt;/b&gt; 11" style="rounded=0;whiteSpace=wrap;html=1;fillColor=#fff2cc;strokeColor=#d6b656;" parent="1" vertex="1">
          <mxGeometry x="-120" y="650" width="160" height="20" as="geometry" />
        </mxCell>
        <mxCell id="5J5AWuTOcwmvuOkOpKkV-76" style="edgeStyle=orthogonalEdgeStyle;rounded=0;orthogonalLoop=1;jettySize=auto;html=1;exitX=1;exitY=0.5;exitDx=0;exitDy=0;entryX=0;entryY=0.5;entryDx=0;entryDy=0;" parent="1" source="5J5AWuTOcwmvuOkOpKkV-75" target="5J5AWuTOcwmvuOkOpKkV-20" edge="1">
          <mxGeometry relative="1" as="geometry" />
        </mxCell>
        <mxCell id="W7AmAQE3_NizHvJbt0U--11" value="Not Used" style="edgeLabel;html=1;align=center;verticalAlign=middle;resizable=0;points=[];" vertex="1" connectable="0" parent="5J5AWuTOcwmvuOkOpKkV-76">
          <mxGeometry x="-0.0489" y="-1" relative="1" as="geometry">
            <mxPoint as="offset" />
          </mxGeometry>
        </mxCell>
        <mxCell id="5J5AWuTOcwmvuOkOpKkV-75" value="&lt;b&gt;RESET&lt;/b&gt; 31" style="rounded=0;whiteSpace=wrap;html=1;fillColor=#fff2cc;strokeColor=#d6b656;" parent="1" vertex="1">
          <mxGeometry x="-120" y="670" width="160" height="20" as="geometry" />
        </mxCell>
        <mxCell id="5J5AWuTOcwmvuOkOpKkV-77" value="&lt;b&gt;IMU&lt;/b&gt;" style="rounded=0;whiteSpace=wrap;html=1;fillColor=#dae8fc;strokeColor=#6c8ebf;" parent="1" vertex="1">
          <mxGeometry x="680" y="510" width="160" height="50" as="geometry" />
        </mxCell>
        <mxCell id="W7AmAQE3_NizHvJbt0U--22" style="edgeStyle=orthogonalEdgeStyle;rounded=1;orthogonalLoop=1;jettySize=auto;html=1;exitX=0;exitY=0.75;exitDx=0;exitDy=0;entryX=0;entryY=0.25;entryDx=0;entryDy=0;fillColor=#e1d5e7;strokeColor=#9673a6;strokeWidth=4;curved=0;" edge="1" parent="1" source="5J5AWuTOcwmvuOkOpKkV-87" target="W7AmAQE3_NizHvJbt0U--1">
          <mxGeometry relative="1" as="geometry">
            <Array as="points">
              <mxPoint x="-490" y="305" />
              <mxPoint x="-490" y="425" />
            </Array>
          </mxGeometry>
        </mxCell>
        <mxCell id="5J5AWuTOcwmvuOkOpKkV-87" value="&lt;b&gt;MPPT&lt;/b&gt;" style="rounded=0;whiteSpace=wrap;html=1;fillColor=#d5e8d4;strokeColor=#82b366;" parent="1" vertex="1">
          <mxGeometry x="-460" y="170" width="160" height="180" as="geometry" />
        </mxCell>
        <mxCell id="W7AmAQE3_NizHvJbt0U--2" style="edgeStyle=orthogonalEdgeStyle;rounded=1;orthogonalLoop=1;jettySize=auto;html=1;exitX=1;exitY=0.25;exitDx=0;exitDy=0;entryX=0;entryY=0.5;entryDx=0;entryDy=0;curved=0;" edge="1" parent="1" source="W7AmAQE3_NizHvJbt0U--1" target="5J5AWuTOcwmvuOkOpKkV-52">
          <mxGeometry relative="1" as="geometry" />
        </mxCell>
        <mxCell id="W7AmAQE3_NizHvJbt0U--4" style="edgeStyle=orthogonalEdgeStyle;rounded=1;orthogonalLoop=1;jettySize=auto;html=1;exitX=1;exitY=0.5;exitDx=0;exitDy=0;entryX=0;entryY=0.5;entryDx=0;entryDy=0;curved=0;" edge="1" parent="1" source="W7AmAQE3_NizHvJbt0U--1" target="5J5AWuTOcwmvuOkOpKkV-53">
          <mxGeometry relative="1" as="geometry" />
        </mxCell>
        <mxCell id="W7AmAQE3_NizHvJbt0U--19" style="edgeStyle=orthogonalEdgeStyle;rounded=1;orthogonalLoop=1;jettySize=auto;html=1;exitX=0;exitY=0.5;exitDx=0;exitDy=0;entryX=1;entryY=0.5;entryDx=0;entryDy=0;startArrow=classic;startFill=1;fillColor=#f8cecc;strokeColor=#b85450;strokeWidth=5;curved=0;" edge="1" parent="1" source="W7AmAQE3_NizHvJbt0U--1" target="W7AmAQE3_NizHvJbt0U--16">
          <mxGeometry relative="1" as="geometry" />
        </mxCell>
        <mxCell id="W7AmAQE3_NizHvJbt0U--1" value="&lt;b&gt;LIPO CHARGER&lt;/b&gt;" style="rounded=0;whiteSpace=wrap;html=1;fillColor=#d5e8d4;strokeColor=#82b366;" vertex="1" parent="1">
          <mxGeometry x="-460" y="380" width="160" height="180" as="geometry" />
        </mxCell>
        <mxCell id="W7AmAQE3_NizHvJbt0U--3" value="Charge State2" style="text;html=1;align=center;verticalAlign=middle;resizable=0;points=[];autosize=1;strokeColor=none;fillColor=none;" vertex="1" parent="1">
          <mxGeometry x="-300" y="400" width="100" height="30" as="geometry" />
        </mxCell>
        <mxCell id="W7AmAQE3_NizHvJbt0U--5" value="Charge State1" style="text;html=1;align=center;verticalAlign=middle;resizable=0;points=[];autosize=1;strokeColor=none;fillColor=none;" vertex="1" parent="1">
          <mxGeometry x="-300" y="445" width="100" height="30" as="geometry" />
        </mxCell>
        <mxCell id="W7AmAQE3_NizHvJbt0U--18" value="" style="group;fontStyle=1" vertex="1" connectable="0" parent="1">
          <mxGeometry x="-660" y="400" width="60" height="130" as="geometry" />
        </mxCell>
        <mxCell id="W7AmAQE3_NizHvJbt0U--16" value="&lt;b&gt;LIPO&lt;/b&gt;" style="rounded=1;whiteSpace=wrap;html=1;fillColor=#fff2cc;strokeColor=#d6b656;" vertex="1" parent="W7AmAQE3_NizHvJbt0U--18">
          <mxGeometry y="10" width="60" height="120" as="geometry" />
        </mxCell>
        <mxCell id="W7AmAQE3_NizHvJbt0U--17" value="" style="rounded=1;whiteSpace=wrap;html=1;fillColor=#f5f5f5;fontColor=#333333;strokeColor=#666666;" vertex="1" parent="W7AmAQE3_NizHvJbt0U--18">
          <mxGeometry x="20" width="20" height="10" as="geometry" />
        </mxCell>
        <mxCell id="W7AmAQE3_NizHvJbt0U--21" style="edgeStyle=orthogonalEdgeStyle;rounded=0;orthogonalLoop=1;jettySize=auto;html=1;exitX=1;exitY=0.5;exitDx=0;exitDy=0;entryX=0;entryY=0.5;entryDx=0;entryDy=0;fillColor=#e1d5e7;strokeColor=#9673a6;strokeWidth=4;" edge="1" parent="1" source="W7AmAQE3_NizHvJbt0U--20" target="5J5AWuTOcwmvuOkOpKkV-87">
          <mxGeometry relative="1" as="geometry" />
        </mxCell>
        <mxCell id="W7AmAQE3_NizHvJbt0U--20" value="PV" style="rounded=1;whiteSpace=wrap;html=1;fillColor=#ffe6cc;strokeColor=#d79b00;fontStyle=1" vertex="1" parent="1">
          <mxGeometry x="-660" y="190" width="60" height="140" as="geometry" />
        </mxCell>
        <mxCell id="W7AmAQE3_NizHvJbt0U--23" style="edgeStyle=orthogonalEdgeStyle;rounded=1;orthogonalLoop=1;jettySize=auto;html=1;exitX=0;exitY=0.5;exitDx=0;exitDy=0;entryX=0;entryY=0.5;entryDx=0;entryDy=0;strokeWidth=5;fillColor=#f8cecc;strokeColor=#b85450;curved=0;" edge="1" parent="1" source="W7AmAQE3_NizHvJbt0U--1" target="5J5AWuTOcwmvuOkOpKkV-30">
          <mxGeometry relative="1" as="geometry">
            <Array as="points">
              <mxPoint x="-540" y="470" />
              <mxPoint x="-540" y="130" />
            </Array>
          </mxGeometry>
        </mxCell>
        <mxCell id="W7AmAQE3_NizHvJbt0U--24" value="HCU_BC" style="text;html=1;align=center;verticalAlign=middle;resizable=0;points=[];autosize=1;strokeColor=none;fillColor=none;fontSize=21;fontStyle=1" vertex="1" parent="1">
          <mxGeometry y="770" width="110" height="40" as="geometry" />
        </mxCell>
        <mxCell id="W7AmAQE3_NizHvJbt0U--25" value="HCU_CC" style="text;html=1;align=center;verticalAlign=middle;resizable=0;points=[];autosize=1;strokeColor=none;fillColor=none;fontSize=21;fontStyle=1" vertex="1" parent="1">
          <mxGeometry x="260" y="770" width="110" height="40" as="geometry" />
        </mxCell>
        <mxCell id="W7AmAQE3_NizHvJbt0U--26" value="" style="endArrow=classic;html=1;rounded=0;fillColor=#f5f5f5;strokeColor=#666666;strokeWidth=6;dashed=1;" edge="1" parent="1">
          <mxGeometry width="50" height="50" relative="1" as="geometry">
            <mxPoint x="270" y="810" as="sourcePoint" />
            <mxPoint x="750" y="810" as="targetPoint" />
          </mxGeometry>
        </mxCell>
        <mxCell id="W7AmAQE3_NizHvJbt0U--29" value="Text" style="edgeLabel;html=1;align=center;verticalAlign=middle;resizable=0;points=[];" vertex="1" connectable="0" parent="W7AmAQE3_NizHvJbt0U--26">
          <mxGeometry x="0.2525" y="5" relative="1" as="geometry">
            <mxPoint x="1" as="offset" />
          </mxGeometry>
        </mxCell>
        <mxCell id="W7AmAQE3_NizHvJbt0U--27" value="" style="endArrow=classic;html=1;rounded=0;fillColor=#f5f5f5;strokeColor=#666666;strokeWidth=6;dashed=1;" edge="1" parent="1">
          <mxGeometry width="50" height="50" relative="1" as="geometry">
            <mxPoint x="100" y="810" as="sourcePoint" />
            <mxPoint x="-650" y="810" as="targetPoint" />
          </mxGeometry>
        </mxCell>
      </root>
    </mxGraphModel>
  </diagram>
</mxfile>
